<?xml version="1.0" encoding="utf-8"?>
<!-- Generator: Adobe Illustrator 16.0.4, SVG Export Plug-In . SVG Version: 6.00 Build 0)  -->
<!DOCTYPE svg PUBLIC "-//W3C//DTD SVG 1.1//EN" "http://www.w3.org/Graphics/SVG/1.1/DTD/svg11.dtd">
<svg version="1.1" id="Layer_1" xmlns="http://www.w3.org/2000/svg" xmlns:xlink="http://www.w3.org/1999/xlink" x="0px" y="0px"
	 width="180px" height="234px" viewBox="0 0 180 234" enable-background="new 0 0 180 234" xml:space="preserve">
<g>
	<g id="Logo">
		<g id="logo_bg">
			<path fill="#56C7E8" d="M125.901,96.742c0,19.832-16.058,35.905-35.893,35.905c-19.843,0-35.901-16.073-35.901-35.905
				c0-19.836,16.059-35.9,35.901-35.9C109.84,60.842,125.901,76.906,125.901,96.742z"/>
			<path fill="#FFFFFF" d="M90.009,134.446c-20.789,0-37.72-16.905-37.72-37.704c-0.001-20.81,16.928-37.72,37.72-37.72
				c20.796,0,37.702,16.91,37.702,37.72C127.711,117.536,110.805,134.446,90.009,134.446z M90.009,62.649
				c-18.797,0-34.088,15.296-34.088,34.093s15.293,34.093,34.088,34.093c18.802,0,34.084-15.296,34.084-34.093
				C124.091,77.945,108.811,62.649,90.009,62.649z"/>
		</g>
		<path id="logo_circle" fill="#FFFFFF" d="M97.322,80.263c0,4.047-3.276,7.305-7.313,7.305c-4.04,0-7.323-3.258-7.323-7.305
			c0-4.03,3.283-7.314,7.323-7.314C94.046,72.948,97.322,76.232,97.322,80.263z"/>
		<path id="logo_circle_1_" fill="#FFFFFF" d="M82.686,107.552c0,4.042-3.265,7.315-7.307,7.315c-4.034,0-7.304-3.273-7.304-7.315
			c0-4.025,3.27-7.302,7.304-7.302C79.421,100.25,82.686,103.526,82.686,107.552z"/>
		<path id="logo_circle_2_" fill="#FFFFFF" d="M111.942,107.552c0,4.042-3.281,7.315-7.306,7.315c-4.038,0-7.314-3.273-7.314-7.315
			c0-4.025,3.276-7.302,7.314-7.302C108.661,100.25,111.942,103.526,111.942,107.552z"/>
		
			<rect id="logo_line" x="81.841" y="92.1" transform="matrix(-0.4722 -0.8815 0.8815 -0.4722 60.4918 224.0443)" fill="#FFFFFF" width="30.958" height="3.624"/>
		<rect id="logo_line_2_" x="75.238" y="105.749" fill="#FFFFFF" width="29.395" height="3.617"/>
	</g>
	
		<rect id="logo_line_3_" x="67.209" y="92.1" transform="matrix(0.4722 -0.8815 0.8815 0.4722 -39.1402 122.4556)" fill="#FFFFFF" width="30.958" height="3.624"/>
</g>
<g>
	<path fill="#3A3A3A" d="M53.304,159.442l6.336-16.093h1.568l6.303,16.093h-1.929l-1.995-5.108h-6.424l-1.974,5.108H53.304z
		 M57.821,152.668h5.185l-1.864-4.966c-0.241-0.629-0.49-1.399-0.745-2.313c-0.161,0.702-0.391,1.473-0.691,2.313L57.821,152.668z"
		/>
	<path fill="#3A3A3A" d="M69.44,159.442v-17.058h1.82v17.058H69.44z"/>
	<path fill="#3A3A3A" d="M75.119,159.442v-17.058h1.82v17.058H75.119z"/>
	<path fill="#3A3A3A" d="M79.065,145.082v-1.666H91.08v1.666h-5.076v14.36h-1.863v-14.36H79.065z"/>
	<path fill="#3A3A3A" d="M93.217,159.442v-12.015h1.48l0.223,2.235h0.094c0.447-0.785,0.984-1.391,1.613-1.816
		c0.628-0.425,1.318-0.638,2.071-0.638c0.533,0,1.013,0.044,1.437,0.132l-0.252,1.698c-0.497-0.109-0.936-0.164-1.315-0.164
		c-0.973,0-1.804,0.395-2.494,1.183s-1.036,1.771-1.036,2.945v6.439H93.217z"/>
	<path fill="#3A3A3A" d="M101.482,156.133c0-2.42,1.943-3.688,5.829-3.805l2.042-0.066v-0.755c0-0.954-0.202-1.659-0.607-2.114
		c-0.405-0.454-1.052-0.683-1.942-0.683c-0.999,0-2.13,0.312-3.392,0.933l-0.565-1.396c0.592-0.317,1.24-0.565,1.945-0.745
		c0.705-0.181,1.412-0.271,2.121-0.271c1.432,0,2.491,0.318,3.182,0.954c0.689,0.636,1.034,1.655,1.034,3.058v8.2h-1.348
		l-0.362-1.69h-0.088c-0.598,0.745-1.194,1.25-1.789,1.514c-0.594,0.264-1.336,0.396-2.227,0.396c-1.196,0-2.135-0.307-2.814-0.918
		C101.822,158.132,101.482,157.262,101.482,156.133z M103.412,156.155c0,0.66,0.198,1.164,0.596,1.509s0.954,0.518,1.669,0.518
		c1.131,0,2.019-0.312,2.664-0.937c0.646-0.624,0.969-1.498,0.969-2.621v-1.09l-1.816,0.076c-1.444,0.052-2.485,0.277-3.124,0.678
		C103.731,154.688,103.412,155.311,103.412,156.155z"/>
	<path fill="#3A3A3A" d="M114.199,153.468c0-1.966,0.437-3.5,1.311-4.604s2.091-1.655,3.649-1.655c1.646,0,2.913,0.621,3.799,1.863
		h0.099l0.263-1.645h1.437v17.408h-1.82v-5.142c0-0.73,0.041-1.352,0.121-1.863h-0.143c-0.842,1.221-2.108,1.831-3.799,1.831
		c-1.544,0-2.75-0.545-3.616-1.634C114.632,156.939,114.199,155.419,114.199,153.468z M116.062,153.49
		c0,1.513,0.28,2.665,0.84,3.458c0.561,0.793,1.39,1.189,2.487,1.189c1.215,0,2.101-0.325,2.657-0.976
		c0.556-0.65,0.853-1.746,0.889-3.288v-0.406c0-1.681-0.285-2.89-0.856-3.628c-0.57-0.738-1.475-1.107-2.712-1.107
		c-1.068,0-1.887,0.415-2.453,1.244C116.347,150.806,116.062,151.978,116.062,153.49z"/>
</g>
<g>
	<path fill="#3A3A3A" d="M127.135,142.815v-0.073c0-0.09,0.029-0.136,0.092-0.138h2.131c0.061,0,0.092,0.046,0.092,0.138v0.073
		c0,0.091-0.031,0.136-0.092,0.136h-0.859v2.748c0,0.066-0.061,0.1-0.182,0.1h-0.035c-0.121,0-0.184-0.033-0.184-0.1v-2.748h-0.871
		C127.164,142.951,127.135,142.906,127.135,142.815z"/>
	<path fill="#3A3A3A" d="M129.949,145.699v-3.004c0-0.066,0.061-0.1,0.182-0.1h0.166c0.098,0,0.162,0.027,0.191,0.082l0.861,1.493
		l0.117,0.286l0.121-0.26l0.861-1.52c0.029-0.055,0.094-0.082,0.191-0.082h0.148c0.123,0,0.184,0.033,0.184,0.1v3.004
		c0,0.066-0.062,0.1-0.184,0.1h-0.033c-0.121,0-0.184-0.033-0.184-0.1v-2.448l-0.914,1.593c-0.021,0.04-0.055,0.06-0.1,0.06h-0.182
		c-0.047,0-0.08-0.02-0.1-0.06l-0.928-1.619v2.475c0,0.066-0.061,0.1-0.182,0.1h-0.035
		C130.01,145.799,129.949,145.766,129.949,145.699z"/>
</g>
</svg>
